<svg width="37" height="37" viewBox="0 0 37 37" fill="none" xmlns="http://www.w3.org/2000/svg">
<mask id="path-1-inside-1_470_314" fill="white">
<path d="M11.613 3.92252C12.0457 1.75617 14.1713 0.23931 16.3606 0.534514L18.3226 0.799064L11.8918 32.9936C11.4591 35.1599 9.33348 36.6768 7.14415 36.3816L5.18216 36.117L11.613 3.92252Z"/>
</mask>
<path d="M11.613 3.92252C12.0457 1.75617 14.1713 0.23931 16.3606 0.534514L18.3226 0.799064L11.8918 32.9936C11.4591 35.1599 9.33348 36.6768 7.14415 36.3816L5.18216 36.117L11.613 3.92252Z" fill="#752DD5"/>
<path d="M11.6169 3.90265C12.2638 0.664103 15.4415 -1.6035 18.7144 -1.16219L17.9308 2.76032L15.9689 2.49577C13.7795 2.20057 11.8293 2.83934 11.613 3.92251L11.6169 3.90265ZM11.8878 33.0134C11.2409 36.252 8.06331 38.5196 4.7904 38.0783L5.57392 34.1558L7.53591 34.4203C9.72523 34.7155 11.6754 34.0767 11.8918 32.9936L11.8878 33.0134ZM5.18216 36.117L12.3965 0L5.18216 36.117ZM18.3226 0.799064L11.1083 36.9161L18.3226 0.799064Z" fill="#5C1DB1" mask="url(#path-1-inside-1_470_314)"/>
<mask id="path-3-inside-2_470_314" fill="white">
<path d="M30.0915 4.80533C30.5242 2.63899 29.1002 0.643503 26.9109 0.348299L24.9489 0.0837485L18.5181 32.2783C18.0854 34.4446 19.5094 36.4401 21.6987 36.7353L23.6607 36.9998L30.0915 4.80533Z"/>
</mask>
<path d="M30.0915 4.80533C30.5242 2.63899 29.1002 0.643503 26.9109 0.348299L24.9489 0.0837485L18.5181 32.2783C18.0854 34.4446 19.5094 36.4401 21.6987 36.7353L23.6607 36.9998L30.0915 4.80533Z" fill="#752DD5"/>
<path d="M30.0955 4.78546C30.7423 1.54692 28.6135 -1.4362 25.3406 -1.87751L24.5571 2.045L26.5191 2.30955C28.7084 2.60476 30.3078 3.72215 30.0915 4.80532L30.0955 4.78546ZM18.5141 32.2981C17.8672 35.5367 19.996 38.5198 23.2689 38.9611L24.0524 35.0386L22.0904 34.774C19.9011 34.4788 18.3017 33.3614 18.5181 32.2783L18.5141 32.2981ZM23.6607 36.9998L30.875 0.882812L23.6607 36.9998ZM24.9489 0.0837485L17.7346 36.2008L24.9489 0.0837485Z" fill="#5C1DB1" mask="url(#path-3-inside-2_470_314)"/>
<mask id="path-5-inside-3_470_314" fill="white">
<path d="M32.8949 15.4212C35.1039 15.4528 36.9326 13.6881 36.9795 11.4794L36.9993 10.5452L7.07994 10.1161C4.87103 10.0844 3.04231 11.8492 2.99539 14.0579L2.97554 14.9921L32.8949 15.4212Z"/>
</mask>
<path d="M32.8949 15.4212C35.1039 15.4528 36.9326 13.6881 36.9795 11.4794L36.9993 10.5452L7.07994 10.1161C4.87103 10.0844 3.04231 11.8492 2.99539 14.0579L2.97554 14.9921L32.8949 15.4212Z" fill="#752DD5"/>
<path d="M34.7926 15.5484C37.0568 15.5809 38.9312 13.772 38.9793 11.5081L38.9991 10.5739L34.9995 10.5165L34.9797 11.4507C34.9339 13.6042 34.0015 15.337 32.8971 15.3212L34.7926 15.5484ZM6.11447 10.1023C3.33432 10.0624 1.03268 12.2836 0.973625 15.0634L0.973625 15.0634L4.97746 14.9208L4.99519 14.0865C5.04211 11.8779 5.97548 10.1003 7.07994 10.1161L6.11447 10.1023ZM0.973625 15.0634L34.7926 15.5484C37.0568 15.5809 38.9312 13.772 38.9793 11.5081L34.9797 11.4507C34.9339 13.6042 34.0015 15.337 32.8971 15.3212L4.97746 14.9208L0.973625 15.0634ZM36.9993 10.5452L3.08035 10.0588L36.9993 10.5452Z" fill="white" mask="url(#path-5-inside-3_470_314)"/>
<mask id="path-7-inside-4_470_314" fill="white">
<path d="M4.04484 26.8295C1.83575 26.8433 0.0283274 25.0637 0.00785711 22.8547L-0.000798776 21.9206L29.9225 21.7334C32.1315 21.7196 33.939 23.4992 33.9594 25.7082L33.9681 26.6423L4.04484 26.8295Z"/>
</mask>
<path d="M4.04484 26.8295C1.83575 26.8433 0.0283274 25.0637 0.00785711 22.8547L-0.000798776 21.9206L29.9225 21.7334C32.1315 21.7196 33.939 23.4992 33.9594 25.7082L33.9681 26.6423L4.04484 26.8295Z" fill="#752DD5"/>
<path d="M2.14581 26.9414C-0.118516 26.9555 -1.97112 25.1314 -1.9921 22.8672L-2.00076 21.9331L1.99916 21.9081L2.00782 22.8422C2.02778 24.996 2.93937 26.7364 4.04392 26.7295L2.14581 26.9414ZM30.8883 21.7273C33.6685 21.71 35.9432 23.9496 35.969 26.7298L35.969 26.7298L31.9672 26.5548L31.9595 25.7207C31.939 23.5117 31.027 21.7265 29.9225 21.7334L30.8883 21.7273ZM35.969 26.7298L2.14581 26.9414C-0.118516 26.9555 -1.97112 25.1314 -1.9921 22.8672L2.00782 22.8422C2.02778 24.996 2.93937 26.7364 4.04392 26.7295L31.9672 26.5548L35.969 26.7298ZM-0.000798776 21.9206L33.9224 21.7084L-0.000798776 21.9206Z" fill="white" mask="url(#path-7-inside-4_470_314)"/>
</svg>
